<?xml version="1.0" encoding="UTF-8" standalone="no"?>
<!-- Created with Inkscape (http://www.inkscape.org/) -->
<svg
   xmlns:dc="http://purl.org/dc/elements/1.1/"
   xmlns:cc="http://creativecommons.org/ns#"
   xmlns:rdf="http://www.w3.org/1999/02/22-rdf-syntax-ns#"
   xmlns:svg="http://www.w3.org/2000/svg"
   xmlns="http://www.w3.org/2000/svg"
   xmlns:sodipodi="http://sodipodi.sourceforge.net/DTD/sodipodi-0.dtd"
   xmlns:inkscape="http://www.inkscape.org/namespaces/inkscape"
   version="1.0"
   width="224.65625"
   height="254.26529"
   id="svg2"
   sodipodi:version="0.32"
   inkscape:version="0.46"
   sodipodi:docname="cartoon_frog.svg"
   inkscape:output_extension="org.inkscape.output.svg.inkscape">
  <metadata
     id="metadata8219">
    <rdf:RDF>
      <cc:Work
         rdf:about="">
        <dc:format>image/svg+xml</dc:format>
        <dc:type
           rdf:resource="http://purl.org/dc/dcmitype/StillImage" />
      </cc:Work>
    </rdf:RDF>
  </metadata>
  <sodipodi:namedview
     inkscape:window-height="706"
     inkscape:window-width="872"
     inkscape:pageshadow="2"
     inkscape:pageopacity="0.0"
     guidetolerance="10.0"
     gridtolerance="10.0"
     objecttolerance="10.0"
     borderopacity="1.0"
     bordercolor="#666666"
     pagecolor="#ffffff"
     id="base"
     showgrid="false"
     inkscape:zoom="2.0372423"
     inkscape:cx="110.85555"
     inkscape:cy="127.13264"
     inkscape:window-x="306"
     inkscape:window-y="49"
     inkscape:current-layer="svg2" />
  <defs
     id="defs4">
    <inkscape:perspective
       sodipodi:type="inkscape:persp3d"
       inkscape:vp_x="0 : 127.13264 : 1"
       inkscape:vp_y="0 : 1000 : 0"
       inkscape:vp_z="224.65625 : 127.13264 : 1"
       inkscape:persp3d-origin="112.32812 : 84.755096 : 1"
       id="perspective8221" />
  </defs>
  <g
     id="g9230">
    <path
       style="fill:#36d622;fill-opacity:1;fill-rule:nonzero;stroke:#000000;stroke-width:4;stroke-linecap:round;stroke-linejoin:round;stroke-miterlimit:4;stroke-opacity:1"
       id="path9218"
       d="M 32.354929,235.91672 C 34.354509,244.71869 26.002336,245.2069 21.217641,245.29807 C 12.951966,245.45557 8.1169029,244.51898 8.6077649,238.86188 C 9.0359749,233.92684 15.419357,232.78335 20.726781,232.78334 C 26.034215,232.78334 31.762716,233.30985 32.354929,235.91672 z"
       sodipodi:nodetypes="cssss" />
    <path
       sodipodi:nodetypes="cscsc"
       d="M 223.03623,187.76883 C 223.05429,238.34124 172.94997,242.04094 112.34791,242.04094 C 51.74585,242.04094 5.0775466,235.39608 5.0956073,184.82367 C 5.0775466,134.25125 51.74585,58.886042 112.34791,58.886042 C 172.94997,58.886042 223.05429,137.19641 223.03623,187.76883 z"
       id="path2383"
       style="fill:#1feb04;fill-opacity:1;fill-rule:nonzero;stroke:#000000;stroke-width:3.65970898;stroke-linecap:round;stroke-linejoin:round;stroke-miterlimit:4;stroke-dasharray:none;stroke-opacity:1" />
    <path
       sodipodi:nodetypes="cscscc"
       d="M 213.91592,152.33873 C 213.91592,212.80301 167.30326,216.71089 106.83897,216.71089 C 59.576799,216.71089 19.247769,214.19976 8.319206,159.95879 C -7.6799501,241.14138 53.59338,241.848 112.35725,241.848 C 172.82154,241.848 224.3428,239.4127 224.3428,178.94842 C 224.41333,163.67147 221.74591,163.16046 213.91592,152.33873 z"
       id="path3221"
       style="fill:#000000;fill-opacity:0.31372603;fill-rule:nonzero;stroke:none;stroke-width:4;stroke-linecap:round;stroke-linejoin:round;stroke-miterlimit:4;stroke-dasharray:none;stroke-opacity:1" />
    <path
       sodipodi:nodetypes="cssz"
       d="M 27.554343,97.56432 C 20.848867,161.82344 87.800618,181.9008 111.85239,185.78924 C 138.22655,190.05314 204.12454,164.50297 201.54989,102.47292 C 198.4944,28.857799 34.259819,33.305194 27.554343,97.56432 z"
       id="path3155"
       style="fill:#3de826;fill-opacity:1;fill-rule:nonzero;stroke:#000000;stroke-width:4;stroke-linecap:round;stroke-linejoin:round;stroke-miterlimit:4;stroke-opacity:1" />
    <path
       style="fill:#000000;fill-opacity:0.31372603;fill-rule:nonzero;stroke:none;stroke-width:4;stroke-linecap:round;stroke-linejoin:round;stroke-miterlimit:4;stroke-opacity:1"
       id="path9210"
       d="M 176.36814,62.167461 C 176.36814,73.743567 160.59009,83.138672 152.94264,83.138672 C 145.58097,83.138672 129.51714,73.743567 129.51714,62.167461 C 129.51714,50.591354 136.56588,41.19625 152.94264,41.19625 C 169.32222,41.19625 176.36814,50.591354 176.36814,62.167461 z" />
    <path
       d="M 172.25095,52.199196 C 172.25468,64.718128 162.10713,74.868706 149.5882,74.868706 C 137.06926,74.868706 126.92171,64.718128 126.92544,52.199196 C 126.92171,39.680264 137.06926,29.529687 149.5882,29.529687 C 162.10713,29.529687 172.25468,39.680264 172.25095,52.199196 z"
       id="path3159"
       style="fill:#ffffff;fill-opacity:1;fill-rule:nonzero;stroke:#000000;stroke-width:3.99999881;stroke-linecap:round;stroke-linejoin:round;stroke-miterlimit:4;stroke-dasharray:none;stroke-opacity:1" />
    <path
       d="M 149.16043,59.143967 C 149.16167,63.316944 145.77916,66.70047 141.60618,66.70047 C 137.4332,66.70047 134.05068,63.316944 134.05193,59.143967 C 134.05068,54.970989 137.4332,51.587464 141.60618,51.587464 C 145.77916,51.587464 149.16167,54.970989 149.16043,59.143967 z"
       id="path3161"
       style="fill:#000000;fill-opacity:1;fill-rule:nonzero;stroke:none;stroke-width:47.66669846;stroke-linecap:round;stroke-linejoin:round;stroke-miterlimit:4;stroke-dasharray:none;stroke-opacity:1" />
    <path
       d="M 101.75748,71.493794 C 101.75748,83.0699 85.979425,92.465005 78.331978,92.465005 C 70.970307,92.465005 54.906475,83.0699 54.906475,71.493794 C 54.906475,59.917687 61.955219,50.522583 78.331978,50.522583 C 94.71155,50.522583 101.75748,59.917687 101.75748,71.493794 z"
       id="path3236"
       style="fill:#000000;fill-opacity:0.31372603;fill-rule:nonzero;stroke:none;stroke-width:4;stroke-linecap:round;stroke-linejoin:round;stroke-miterlimit:4;stroke-opacity:1" />
    <path
       sodipodi:nodetypes="cczcc"
       d="M 114.30627,136.86944 C 93.909984,136.86944 75.406646,143.73311 73.44321,149.42905 C 72.498768,160.59724 91.46583,144.76039 114.79713,145.03402 C 138.12901,145.30766 152.72152,161.03259 153.72884,149.91991 C 153.72884,145.69655 134.70256,136.86944 114.30627,136.86944 z"
       id="path3210"
       style="fill:#ffd5e5;fill-opacity:1;fill-rule:nonzero;stroke:#000000;stroke-width:2.06429529;stroke-linecap:round;stroke-linejoin:round;stroke-miterlimit:4;stroke-dasharray:none;stroke-opacity:1" />
    <path
       d="M 98.901846,61.11428 C 98.905576,73.633064 88.758024,84.187573 76.239092,84.685898 C 63.72016,85.184223 53.572609,75.437576 53.57634,62.918496 C 53.572609,50.399712 63.72016,39.845204 76.239092,39.346879 C 88.758024,38.848554 98.905576,48.5952 98.901846,61.11428 z"
       id="path3157"
       style="fill:#ffffff;fill-opacity:1;fill-rule:nonzero;stroke:#000000;stroke-width:3.99999881;stroke-linecap:round;stroke-linejoin:round;stroke-miterlimit:4;stroke-dasharray:none;stroke-opacity:1" />
    <path
       d="M 199.56306,92.840503 L 197.58624,95.124761 C 197.84864,97.769539 197.94866,100.45876 197.94866,103.18685 C 197.94866,142.03492 139.82817,173.56887 111.66088,173.56887 C 89.830759,173.56889 47.246647,153.14006 31.46825,124.90074 C 39.497591,159.51077 91.744531,186.28011 116.73469,186.2801 C 144.90198,186.2801 203.02247,154.74611 203.02247,115.89808 C 203.02247,107.82175 201.8887,100.06606 199.56306,92.840503 z"
       id="path3231"
       style="fill:#000000;fill-opacity:0.31372603;fill-rule:nonzero;stroke:none;stroke-width:4;stroke-linecap:round;stroke-linejoin:round;stroke-miterlimit:4;stroke-opacity:1" />
    <path
       d="M 131.88963,111.5042 C 129.59691,115.47729 125.38938,117.3428 122.49286,115.67049 C 119.59632,113.99818 119.10814,109.42159 121.40257,105.4495 C 123.6953,101.4764 127.90283,99.610892 130.79936,101.2832 C 133.69589,102.95551 134.18407,107.5321 131.88963,111.5042 z"
       id="path2398"
       style="fill:#000000;fill-opacity:1;fill-rule:nonzero;stroke:none;stroke-width:47.66669846;stroke-linecap:round;stroke-linejoin:round;stroke-miterlimit:4;stroke-dasharray:none;stroke-opacity:1" />
    <path
       d="M 103.07946,112.97678 C 105.37218,116.94987 109.57971,118.81538 112.47623,117.14307 C 115.37277,115.47076 115.86095,110.89417 113.56652,106.92208 C 111.27379,102.94898 107.06626,101.08347 104.16973,102.75578 C 101.27319,104.42809 100.78501,109.00468 103.07946,112.97678 z"
       id="path2412"
       style="fill:#000000;fill-opacity:1;fill-rule:nonzero;stroke:none;stroke-width:47.66669846;stroke-linecap:round;stroke-linejoin:round;stroke-miterlimit:4;stroke-dasharray:none;stroke-opacity:1" />
    <path
       d="M 85.53261,65.034282 C 85.533854,69.207259 82.151337,72.590785 77.978359,72.590785 C 73.805382,72.590785 70.422865,69.207259 70.424109,65.034282 C 70.422865,60.861304 73.805382,57.477779 77.978359,57.477779 C 82.151337,57.477779 85.533854,60.861304 85.53261,65.034282 z"
       id="path3163"
       style="fill:#000000;fill-opacity:1;fill-rule:nonzero;stroke:none;stroke-width:47.66669846;stroke-linecap:round;stroke-linejoin:round;stroke-miterlimit:4;stroke-dasharray:none;stroke-opacity:1" />
    <path
       style="fill:#36d622;fill-opacity:1;fill-rule:nonzero;stroke:#000000;stroke-width:4;stroke-linecap:round;stroke-linejoin:round;stroke-miterlimit:4;stroke-opacity:1"
       id="path9216"
       d="M 46.58986,235.42587 C 48.58944,244.22784 40.23726,244.71605 35.45257,244.80722 C 27.18689,244.96472 22.35183,244.02813 22.84269,238.37103 C 23.2709,233.43599 29.65429,232.2925 34.96171,232.29249 C 40.26914,232.29249 45.99764,232.819 46.58986,235.42587 z"
       sodipodi:nodetypes="cssss" />
    <path
       style="fill:#36d622;fill-opacity:1;fill-rule:nonzero;stroke:#000000;stroke-width:4;stroke-linecap:round;stroke-linejoin:round;stroke-miterlimit:4;stroke-opacity:1"
       id="path9214"
       d="M 63.9697,235.01583 C 65.96928,243.8178 57.617107,244.30601 52.832412,244.39718 C 44.566737,244.55468 39.731674,243.61809 40.222536,237.96099 C 40.650746,233.02595 47.034128,231.88246 52.341552,231.88245 C 57.648986,231.88245 63.377487,232.40896 63.9697,235.01583 z"
       sodipodi:nodetypes="cssss" />
    <path
       style="fill:#36d622;fill-opacity:1;fill-rule:nonzero;stroke:#000000;stroke-width:4;stroke-linecap:round;stroke-linejoin:round;stroke-miterlimit:4;stroke-opacity:1"
       id="path9212"
       d="M 103.17427,236.00145 C 103.17427,245.09223 92.403935,246.27335 80.747205,246.36452 C 72.480305,246.43202 59.188375,246.44152 60.774435,236.49231 C 62.737875,224.17583 70.568345,223.90024 80.256345,223.05088 C 91.454095,222.06916 98.756525,225.64841 103.17427,236.00145 z"
       sodipodi:nodetypes="csssc" />
    <path
       sodipodi:nodetypes="cssss"
       d="M 187.25908,235.42586 C 185.2595,244.22783 193.61167,244.71604 198.39637,244.80721 C 206.66204,244.96471 211.49711,244.02812 211.00624,238.37102 C 210.57803,233.43598 204.19465,232.29249 198.88723,232.29248 C 193.57979,232.29248 187.85129,232.81899 187.25908,235.42586 z"
       id="path9220"
       style="fill:#36d622;fill-opacity:1;fill-rule:nonzero;stroke:#000000;stroke-width:4;stroke-linecap:round;stroke-linejoin:round;stroke-miterlimit:4;stroke-opacity:1" />
    <path
       sodipodi:nodetypes="cssss"
       d="M 173.02415,234.93501 C 171.02457,243.73698 179.37675,244.22519 184.16144,244.31636 C 192.42712,244.47386 197.26218,243.53727 196.77132,237.88017 C 196.34311,232.94513 189.95972,231.80164 184.6523,231.80163 C 179.34487,231.80163 173.61637,232.32814 173.02415,234.93501 z"
       id="path9222"
       style="fill:#36d622;fill-opacity:1;fill-rule:nonzero;stroke:#000000;stroke-width:4;stroke-linecap:round;stroke-linejoin:round;stroke-miterlimit:4;stroke-opacity:1" />
    <path
       sodipodi:nodetypes="cssss"
       d="M 155.64431,234.52497 C 153.64473,243.32694 161.9969,243.81515 166.7816,243.90632 C 175.04727,244.06382 179.88234,243.12723 179.39147,237.47013 C 178.96326,232.53509 172.57988,231.3916 167.27246,231.39159 C 161.96502,231.39159 156.23652,231.9181 155.64431,234.52497 z"
       id="path9224"
       style="fill:#36d622;fill-opacity:1;fill-rule:nonzero;stroke:#000000;stroke-width:4;stroke-linecap:round;stroke-linejoin:round;stroke-miterlimit:4;stroke-opacity:1" />
    <path
       sodipodi:nodetypes="csssc"
       d="M 122.00189,236.00145 C 122.00189,245.09223 132.77222,246.27335 144.42895,246.36452 C 152.69585,246.43202 165.98778,246.44152 164.40172,236.49231 C 162.43828,224.17583 154.60781,223.90024 144.91981,223.05088 C 133.72206,222.06916 126.41963,225.64841 122.00189,236.00145 z"
       id="path3172"
       style="fill:#36d622;fill-opacity:1;fill-rule:nonzero;stroke:#000000;stroke-width:4;stroke-linecap:round;stroke-linejoin:round;stroke-miterlimit:4;stroke-opacity:1" />
    <path
       sodipodi:nodetypes="cssz"
       d="M 57.022159,52.931636 C 53.441825,68.476965 61.695258,47.894998 76.526735,47.893228 C 91.568293,47.89155 100.19706,66.70306 97.994739,56.858514 C 92.739667,33.367886 60.709934,36.919813 57.022159,52.931636 z"
       id="path9226"
       style="fill:#3de826;fill-opacity:1;fill-rule:nonzero;stroke:#000000;stroke-width:3;stroke-linecap:round;stroke-linejoin:round;stroke-miterlimit:4;stroke-dasharray:none;stroke-opacity:1" />
    <path
       style="fill:#3de826;fill-opacity:1;fill-rule:nonzero;stroke:#000000;stroke-width:3;stroke-linecap:round;stroke-linejoin:round;stroke-miterlimit:4;stroke-dasharray:none;stroke-opacity:1"
       id="path9228"
       d="M 169.75917,42.132724 C 173.33951,57.678053 165.57693,38.077681 150.25459,37.094316 C 137.20332,36.256705 126.58427,55.904148 128.78659,46.059602 C 134.04166,22.568974 166.07139,26.120901 169.75917,42.132724 z"
       sodipodi:nodetypes="cssz" />
  </g>
</svg>
