<?xml version="1.0" encoding="UTF-8" standalone="no"?>
<!-- Created with Inkscape (http://www.inkscape.org/) -->

<svg
   xmlns:dc="http://purl.org/dc/elements/1.1/"
   xmlns:cc="http://creativecommons.org/ns#"
   xmlns:rdf="http://www.w3.org/1999/02/22-rdf-syntax-ns#"
   xmlns:svg="http://www.w3.org/2000/svg"
   xmlns="http://www.w3.org/2000/svg"
   xmlns:xlink="http://www.w3.org/1999/xlink"
   xmlns:sodipodi="http://sodipodi.sourceforge.net/DTD/sodipodi-0.dtd"
   xmlns:inkscape="http://www.inkscape.org/namespaces/inkscape"
   width="400"
   height="400"
   id="svg3214"
   version="1.1"
   inkscape:version="0.48.3.1 r9886"
   sodipodi:docname="monkey face.svg">
  <title
     id="title3311">funny monkey face</title>
  <defs
     id="defs3216">
    <radialGradient
       inkscape:collect="always"
       xlink:href="#linearGradient2305"
       id="radialGradient5078"
       gradientUnits="userSpaceOnUse"
       gradientTransform="matrix(1,0,0,0.267857,0,27.63839)"
       cx="-6"
       cy="37.75"
       fx="-6"
       fy="37.75"
       r="14" />
    <linearGradient
       inkscape:collect="always"
       id="linearGradient2305">
      <stop
         style="stop-color:#000000;stop-opacity:1;"
         offset="0"
         id="stop2307" />
      <stop
         style="stop-color:#000000;stop-opacity:0;"
         offset="1"
         id="stop2309" />
    </linearGradient>
    <linearGradient
       inkscape:collect="always"
       xlink:href="#linearGradient4106"
       id="linearGradient3104"
       gradientUnits="userSpaceOnUse"
       x1="114.5"
       y1="284.86218"
       x2="116.25"
       y2="271.61218"
       gradientTransform="matrix(5.0691801,0,0,5.8213714,-376.53494,-1341.0589)" />
    <linearGradient
       inkscape:collect="always"
       id="linearGradient4106">
      <stop
         style="stop-color:#7f4212;stop-opacity:1;"
         offset="0"
         id="stop4108" />
      <stop
         style="stop-color:#7f4212;stop-opacity:0;"
         offset="1"
         id="stop4110" />
    </linearGradient>
    <radialGradient
       inkscape:collect="always"
       xlink:href="#linearGradient3831"
       id="radialGradient3110"
       gradientUnits="userSpaceOnUse"
       gradientTransform="matrix(1.4304863,0.07675367,0.0404253,2.5313575,229.17481,-597.72601)"
       cx="-31.174355"
       cy="373.78815"
       fx="-31.174355"
       fy="373.78815"
       r="79.28125" />
    <linearGradient
       inkscape:collect="always"
       id="linearGradient3831">
      <stop
         style="stop-color:#ffffff;stop-opacity:1"
         offset="0"
         id="stop3833" />
      <stop
         style="stop-color:#eaa50f;stop-opacity:1"
         offset="1"
         id="stop3835" />
    </linearGradient>
    <radialGradient
       inkscape:collect="always"
       xlink:href="#linearGradient3188"
       id="radialGradient3194"
       cx="-60.211269"
       cy="333.74594"
       fx="-60.211269"
       fy="333.74594"
       r="80.35714"
       gradientTransform="matrix(1.6596785,-0.75554942,0.26288018,0.7569933,-36.473726,40.379551)"
       gradientUnits="userSpaceOnUse" />
    <linearGradient
       inkscape:collect="always"
       id="linearGradient3188">
      <stop
         style="stop-color:#7f4212;stop-opacity:1;"
         offset="0"
         id="stop3190" />
      <stop
         style="stop-color:#804d00;stop-opacity:1"
         offset="1"
         id="stop3192" />
    </linearGradient>
    <radialGradient
       inkscape:collect="always"
       xlink:href="#linearGradient4090"
       id="radialGradient4159"
       gradientUnits="userSpaceOnUse"
       gradientTransform="matrix(-0.07895589,-3.4981529,1.6650253,-0.6006953,-672.51034,33.801014)"
       cx="-138.91783"
       cy="326.12634"
       fx="-138.91783"
       fy="326.12634"
       r="27.142857" />
    <linearGradient
       inkscape:collect="always"
       id="linearGradient4090">
      <stop
         style="stop-color:#ffffff;stop-opacity:1"
         offset="0"
         id="stop4092" />
      <stop
         style="stop-color:#ecac21;stop-opacity:1"
         offset="1"
         id="stop4094" />
    </linearGradient>
    <radialGradient
       inkscape:collect="always"
       xlink:href="#linearGradient4098"
       id="radialGradient4157"
       gradientUnits="userSpaceOnUse"
       gradientTransform="matrix(-1.6012989,-1.8351737,1.2193455,-1.0258677,-720.6885,362.56019)"
       cx="-143.64093"
       cy="307.86801"
       fx="-143.64093"
       fy="307.86801"
       r="27.142857" />
    <linearGradient
       inkscape:collect="always"
       id="linearGradient4098">
      <stop
         style="stop-color:#fdf5e5;stop-opacity:1"
         offset="0"
         id="stop4100" />
      <stop
         style="stop-color:#eaa50f;stop-opacity:1"
         offset="1"
         id="stop4102" />
    </linearGradient>
  </defs>
  <sodipodi:namedview
     id="base"
     pagecolor="#ffffff"
     bordercolor="#666666"
     borderopacity="1.0"
     inkscape:pageopacity="0.0"
     inkscape:pageshadow="2"
     inkscape:zoom="0.77472527"
     inkscape:cx="120.57447"
     inkscape:cy="220.97381"
     inkscape:current-layer="layer1"
     inkscape:document-units="px"
     showgrid="false"
     inkscape:window-width="1366"
     inkscape:window-height="706"
     inkscape:window-x="-8"
     inkscape:window-y="-8"
     inkscape:window-maximized="1" />
  <metadata
     id="metadata3219">
    <rdf:RDF>
      <cc:Work
         rdf:about="">
        <dc:format>image/svg+xml</dc:format>
        <dc:type
           rdf:resource="http://purl.org/dc/dcmitype/StillImage" />
        <dc:title>funny monkey face</dc:title>
        <dc:date>2012-05-18</dc:date>
        <dc:creator>
          <cc:Agent>
            <dc:title>NetAlloy, India</dc:title>
          </cc:Agent>
        </dc:creator>
        <dc:publisher>
          <cc:Agent>
            <dc:title>NetAlloy.com</dc:title>
          </cc:Agent>
        </dc:publisher>
        <dc:subject>
          <rdf:Bag>
            <rdf:li>monkey</rdf:li>
            <rdf:li>chimp</rdf:li>
            <rdf:li>funny</rdf:li>
            <rdf:li>cartoon</rdf:li>
            <rdf:li>smile</rdf:li>
            <rdf:li></rdf:li>
          </rdf:Bag>
        </dc:subject>
        <dc:description></dc:description>
        <dc:contributor>
          <cc:Agent>
            <dc:title>based  on Funny  monkey  face by Martouf </dc:title>
          </cc:Agent>
        </dc:contributor>
        <cc:license
           rdf:resource="http://creativecommons.org/licenses/publicdomain/" />
      </cc:Work>
      <cc:License
         rdf:about="http://creativecommons.org/licenses/publicdomain/">
        <cc:permits
           rdf:resource="http://creativecommons.org/ns#Reproduction" />
        <cc:permits
           rdf:resource="http://creativecommons.org/ns#Distribution" />
        <cc:permits
           rdf:resource="http://creativecommons.org/ns#DerivativeWorks" />
      </cc:License>
    </rdf:RDF>
  </metadata>
  <g
     id="layer1"
     inkscape:label="Layer 1"
     inkscape:groupmode="layer"
     transform="translate(0,-80)">
    <path
       sodipodi:type="arc"
       style="opacity:0.48453608;color:#000000;fill:url(#radialGradient5078);fill-opacity:1;fill-rule:evenodd;stroke:none;stroke-width:1;marker:none;visibility:visible;display:inline;overflow:visible"
       id="path5044"
       sodipodi:cx="-6"
       sodipodi:cy="37.75"
       sodipodi:rx="14"
       sodipodi:ry="3.75"
       d="m 8,37.75 a 14,3.75 0 1 1 -28,0 14,3.75 0 1 1 28,0 z"
       transform="matrix(12.084997,0,0,11.905939,270.43017,-19.339694)"
       inkscape:export-filename="/Users/mdespont/Desktop/recherche en cours/kong/path5090.png"
       inkscape:export-xdpi="1256.7957"
       inkscape:export-ydpi="1256.7957" />
    <path
       transform="matrix(-1.3465979,-0.50576003,-0.3670086,1.4595196,274.23201,-244.28974)"
       d="m -105.71429,300.93362 a 27.142857,45.714287 0 1 1 -54.28571,0 27.142857,45.714287 0 1 1 54.28571,0 z"
       sodipodi:ry="45.714287"
       sodipodi:rx="27.142857"
       sodipodi:cy="300.93362"
       sodipodi:cx="-132.85715"
       id="path3790"
       style="fill:#7f4212;fill-opacity:1;stroke:#78330d;stroke-width:0;stroke-linecap:round;stroke-linejoin:round;stroke-miterlimit:4;stroke-opacity:1;stroke-dasharray:none;stroke-dashoffset:0"
       sodipodi:type="arc" />
    <path
       sodipodi:type="arc"
       style="fill:url(#radialGradient4157);fill-opacity:1;stroke:#78330d;stroke-width:0;stroke-linecap:round;stroke-linejoin:round;stroke-miterlimit:4;stroke-opacity:1;stroke-dasharray:none;stroke-dashoffset:0"
       id="path3792"
       sodipodi:cx="-132.85715"
       sodipodi:cy="300.93362"
       sodipodi:rx="27.142857"
       sodipodi:ry="45.714287"
       d="m -105.71429,300.93362 a 27.142857,45.714287 0 1 1 -54.28571,0 27.142857,45.714287 0 1 1 54.28571,0 z"
       transform="matrix(-0.89773197,-0.33717342,-0.24467263,0.9730129,287.48092,-75.603326)" />
    <path
       sodipodi:type="arc"
       style="fill:#7f4212;fill-opacity:1;stroke:#78330d;stroke-width:0;stroke-linecap:round;stroke-linejoin:round;stroke-miterlimit:4;stroke-opacity:1;stroke-dasharray:none;stroke-dashoffset:0"
       id="path3786"
       sodipodi:cx="-132.85715"
       sodipodi:cy="300.93362"
       sodipodi:rx="27.142857"
       sodipodi:ry="45.714287"
       d="m -105.71429,300.93362 a 27.142857,45.714287 0 1 1 -54.28571,0 27.142857,45.714287 0 1 1 54.28571,0 z"
       transform="matrix(1.3501524,-0.29358776,0.35377702,1.5162288,141.18262,-254.75779)" />
    <path
       transform="matrix(0.90010149,-0.19572506,0.23585144,1.0108191,126.44329,-88.273122)"
       d="m -105.71429,300.93362 a 27.142857,45.714287 0 1 1 -54.28571,0 27.142857,45.714287 0 1 1 54.28571,0 z"
       sodipodi:ry="45.714287"
       sodipodi:rx="27.142857"
       sodipodi:cy="300.93362"
       sodipodi:cx="-132.85715"
       id="path3788"
       style="fill:url(#radialGradient4159);fill-opacity:1;stroke:#78330d;stroke-width:0;stroke-linecap:round;stroke-linejoin:round;stroke-miterlimit:4;stroke-opacity:1;stroke-dasharray:none;stroke-dashoffset:0"
       sodipodi:type="arc" />
    <path
       transform="matrix(1.6786022,0.00263571,-0.00654582,1.4726228,248.79506,-78.916385)"
       d="m 55.714283,279.14789 a 80.35714,65.35714 0 1 1 -160.714283,0 80.35714,65.35714 0 1 1 160.714283,0 z"
       sodipodi:ry="65.35714"
       sodipodi:rx="80.35714"
       sodipodi:cy="279.14789"
       sodipodi:cx="-24.642857"
       id="path3784"
       style="fill:url(#radialGradient3194);fill-opacity:1;stroke:#78330d;stroke-width:0;stroke-linecap:round;stroke-linejoin:round;stroke-miterlimit:4;stroke-opacity:1;stroke-dasharray:none;stroke-dashoffset:0"
       sodipodi:type="arc" />
    <path
       style="fill:#7f4212;fill-opacity:1;stroke:#78330d;stroke-width:0;stroke-linecap:round;stroke-linejoin:round;stroke-miterlimit:4;stroke-opacity:1;stroke-dasharray:none;stroke-dashoffset:0"
       d="m 319.91251,225.10977 c -0.25101,56.48295 -51.3463,98.26755 -114.12419,93.32838 -62.7779,-4.93922 -113.4659,-54.73174 -113.21476,-111.21478 0.15365,-34.54291 19.32329,-63.58837 48.55169,-79.8114 9.31316,-5.16925 19.64743,-9.0366 30.71325,-11.36518 10.9926,-2.31323 22.70711,-3.10785 34.85937,-2.15176 15.91461,1.25203 31.05213,5.38669 44.77993,11.78217 10.50176,4.89251 20.17847,11.10816 28.74668,18.36854 24.41278,20.68627 39.82687,49.85378 39.68803,81.06403 z"
       id="path3782"
       inkscape:connector-curvature="0"
       sodipodi:nodetypes="sssssssss" />
    <path
       style="fill:url(#radialGradient3110);fill-opacity:1;stroke:#78330d;stroke-width:14.56858826;stroke-linecap:round;stroke-linejoin:round;stroke-miterlimit:4;stroke-opacity:1;stroke-dasharray:none;stroke-dashoffset:0"
       d="m 154.47835,154.37788 c -4.06308,-0.25017 -8.16104,0.0692 -12.20897,0.94654 -32.38328,7.04207 -50.3267,48.23907 -40.1188,91.98817 2.13864,9.166 5.31965,17.7111 9.35001,25.43891 -11.81428,12.33204 -18.73989,27.70012 -18.8159,44.79561 -0.20586,46.2976 49.83397,87.76538 111.7749,92.63866 61.94085,4.8732 112.31436,-28.69419 112.5202,-74.99179 0.0815,-18.30492 -7.69711,-35.87847 -20.95605,-50.71299 3.40693,-6.41372 6.15529,-13.54978 8.09847,-21.27792 10.58974,-42.11275 -7.01908,-86.10689 -39.31711,-98.23785 -22.17607,-8.32889 -45.50149,0.51416 -61.3805,20.51021 -12.83247,-18.37216 -30.69915,-30.08635 -48.94617,-31.09789 z"
       id="path2996"
       inkscape:connector-curvature="0" />
    <path
       sodipodi:type="arc"
       style="fill:#ffffff;fill-opacity:1;stroke:#78330d;stroke-width:0;stroke-linecap:round;stroke-linejoin:round;stroke-miterlimit:4;stroke-opacity:1;stroke-dasharray:none;stroke-dashoffset:0"
       id="path3794"
       sodipodi:cx="-57.5"
       sodipodi:cy="312.36218"
       sodipodi:rx="16.785715"
       sodipodi:ry="26.428572"
       d="m -40.714285,312.36218 a 16.785715,26.428572 0 1 1 -33.57143,0 16.785715,26.428572 0 1 1 33.57143,0 z"
       transform="matrix(1.7155222,0.13497224,-0.00695812,1.5648109,263.45549,-233.07044)" />
    <path
       sodipodi:type="arc"
       style="fill:#804d00;fill-opacity:1;stroke:#78330d;stroke-width:0;stroke-linecap:round;stroke-linejoin:round;stroke-miterlimit:4;stroke-opacity:1;stroke-dasharray:none;stroke-dashoffset:0"
       id="path3803"
       sodipodi:cx="-51.42857"
       sodipodi:cy="319.86218"
       sodipodi:rx="13.571428"
       sodipodi:ry="13.214286"
       d="m -37.857141,319.86218 a 13.571428,13.214286 0 1 1 -27.142857,0 13.571428,13.214286 0 1 1 27.142857,0 z"
       transform="matrix(1.4145535,0.11129294,-0.00695812,1.5648109,238.10133,-242.89206)" />
    <path
       style="fill:#7f4212;fill-opacity:1;stroke:#78330d;stroke-width:0;stroke-linecap:round;stroke-linejoin:round;stroke-miterlimit:4;stroke-opacity:1;stroke-dasharray:none;stroke-dashoffset:0"
       d="m 269.4038,322.45405 c -8.91292,19.64817 -34.54213,32.35631 -64.73911,29.98074 -27.51512,-2.16487 -51.16654,-16.25196 -61.75424,-34.64947 4.70384,23.06167 30.93366,42.49707 62.68114,44.99487 34.16681,2.68813 62.15882,-15.23391 63.81221,-40.32614 z"
       id="path3846"
       inkscape:connector-curvature="0" />
    <path
       style="fill:url(#linearGradient3104);fill-opacity:1;stroke:#78330d;stroke-width:0;stroke-linecap:round;stroke-linejoin:round;stroke-miterlimit:4;stroke-opacity:1;stroke-dasharray:none;stroke-dashoffset:0"
       d="m 187.75212,286.60693 c 1.67876,13.37111 9.58819,23.25376 19.13488,22.90784 9.37202,-0.3393 17.25206,-10.4225 19.2389,-23.56035 -5.45083,1.36178 -11.42504,2.22349 -17.68706,2.45158 -7.44278,0.26661 -14.46677,-0.40944 -20.68658,-1.79597 z"
       id="path3853"
       inkscape:connector-curvature="0"
       inkscape:transform-center-y="-34.235509" />
    <path
       inkscape:connector-curvature="0"
       id="path3858"
       d="m 260.71611,311.00752 c 5.06141,1.3429 9.89657,7.44509 11.7429,15.52285 1.68262,7.35992 0.41458,14.31247 -2.8364,18.04332 4.74869,-2.41944 7.00078,-10.32452 5.05978,-18.81692 -2.08952,-9.13978 -8.26726,-15.59771 -13.96628,-14.74943 z"
       style="fill:#7f4212;fill-opacity:1;stroke:#78330d;stroke-width:0;stroke-linecap:round;stroke-linejoin:round;stroke-miterlimit:4;stroke-opacity:1;stroke-dasharray:none;stroke-dashoffset:0" />
    <path
       style="fill:#7f4212;fill-opacity:1;stroke:#78330d;stroke-width:0;stroke-linecap:round;stroke-linejoin:round;stroke-miterlimit:4;stroke-opacity:1;stroke-dasharray:none;stroke-dashoffset:0"
       d="m 144.34216,305.51326 c -4.91942,0.63794 -9.69729,6.21566 -11.61539,14.27135 -1.74728,7.34016 -0.63466,14.69497 2.45071,19.0211 -4.55557,-3.19521 -6.60587,-11.67763 -4.58935,-20.14675 2.16979,-9.11466 8.25331,-14.86143 13.75411,-13.14578 z"
       id="path3860"
       inkscape:connector-curvature="0" />
    <path
       sodipodi:type="arc"
       style="fill:#ffffff;fill-opacity:1;stroke:#78330d;stroke-width:0;stroke-linecap:round;stroke-linejoin:round;stroke-miterlimit:4;stroke-opacity:1;stroke-dasharray:none;stroke-dashoffset:0"
       id="path3862"
       sodipodi:cx="-53.214287"
       sodipodi:cy="312.36218"
       sodipodi:rx="4.6428571"
       sodipodi:ry="4.2857141"
       d="m -48.57143,312.36218 a 4.6428571,4.2857141 0 1 1 -9.285714,0 4.6428571,4.2857141 0 1 1 9.285714,0 z"
       transform="matrix(1.4145535,0.11129294,-0.00695812,1.5648109,245.62387,-229.63189)" />
    <path
       transform="matrix(-1.7155222,-0.13497224,-0.00695812,1.5648109,146.01151,-246.78314)"
       d="m -40.714285,312.36218 a 16.785715,26.428572 0 1 1 -33.57143,0 16.785715,26.428572 0 1 1 33.57143,0 z"
       sodipodi:ry="26.428572"
       sodipodi:rx="16.785715"
       sodipodi:cy="312.36218"
       sodipodi:cx="-57.5"
       id="path3867"
       style="fill:#ffffff;fill-opacity:1;stroke:#78330d;stroke-width:0;stroke-linecap:round;stroke-linejoin:round;stroke-miterlimit:4;stroke-opacity:1;stroke-dasharray:none;stroke-dashoffset:0"
       sodipodi:type="arc" />
    <path
       transform="matrix(-1.4145535,-0.11129294,-0.00695812,1.5648109,171.43516,-252.60944)"
       d="m -37.857141,319.86218 a 13.571428,13.214286 0 1 1 -27.142857,0 13.571428,13.214286 0 1 1 27.142857,0 z"
       sodipodi:ry="13.214286"
       sodipodi:rx="13.571428"
       sodipodi:cy="319.86218"
       sodipodi:cx="-51.42857"
       id="path3869"
       style="fill:#804d00;fill-opacity:1;stroke:#78330d;stroke-width:0;stroke-linecap:round;stroke-linejoin:round;stroke-miterlimit:4;stroke-opacity:1;stroke-dasharray:none;stroke-dashoffset:0"
       sodipodi:type="arc" />
    <path
       transform="matrix(-1.3170704,-0.08549387,-0.00647856,1.202068,172.95436,-133.98229)"
       d="m -48.57143,312.36218 a 4.6428571,4.2857141 0 1 1 -9.285714,0 4.6428571,4.2857141 0 1 1 9.285714,0 z"
       sodipodi:ry="4.2857141"
       sodipodi:rx="4.6428571"
       sodipodi:cy="312.36218"
       sodipodi:cx="-53.214287"
       id="path3871"
       style="fill:#ffffff;fill-opacity:1;stroke:#78330d;stroke-width:0;stroke-linecap:round;stroke-linejoin:round;stroke-miterlimit:4;stroke-opacity:1;stroke-dasharray:none;stroke-dashoffset:0"
       sodipodi:type="arc" />
  </g>
</svg>
